:SAMPLES-PER-SECOND 30
:FULLY-SPECIFIED
:DEGREES
157
root  -5.76868 34.8032 -32.5121 -171.993 10.1206 -179.648
RightUpLeg  -7.26539 -11.7574 -3.9108
RightLeg  0.783076 -0.26621 0.0137198
RightFoot  11.1651 0.042022 0.0931514
RightToes  -28.8755 -0.131086 -0.23898
Spine  -1.50135 0.445667 -0.289069
Spine1  -3.01622 0.916856 0.185804
HEad  -65.1087 -16.8721 16.0724
LeftShoulder1  -1.94126e-019 -3.10601e-018 -2.51263e-017
LeftArm  -8.98317 20.6147 -77.4212
LeftForeArm  35.0549 -14.4298 -2.50263
LeftHand  -0.510704 -1.42977 8.85681
RightShoulder  -4.96962e-017 0 -2.36833e-017
RightArm  -29.2246 -12.9546 72.7941
RightForeArm  47.4088 14.2154 2.0735
RightHand  0.0775913 -6.49278 -10.618
LeftUpLeg  -5.22042 8.85761 4.85052
LeftLeg  5.32773 16.7328 0.473272
LeftFoot  7.63182 -0.152385 2.44593
LeftToes  -25.1973 2.25955e-006 -3.67304e-008
158
root  -5.75644 34.7962 -32.4175 -171.906 11.9473 -179.532
RightUpLeg  -8.11769 -10.1978 -3.76359
RightLeg  1.35344 -0.0143392 0.000954118
RightFoot  11.1685 0.0376759 0.139558
RightToes  -28.6516 -0.132713 -0.240316
Spine  -1.39578 0.36157 -0.23446
Spine1  -2.8091 0.759389 0.276872
HEad  -64.9364 -17.246 15.5193
LeftShoulder1  -1.94126e-019 -3.10601e-018 -2.51263e-017
LeftArm  -8.89138 20.1504 -77.3691
LeftForeArm  34.1618 -16.617 -2.84754
LeftHand  -0.504585 -1.22963 8.90923
RightShoulder  -4.96962e-017 0 -2.36833e-017
RightArm  -26.7517 -14.1044 73.2672
RightForeArm  45.0516 15.6877 1.97508
RightHand  0.0339075 -6.06567 -9.73376
LeftUpLeg  -5.33183 10.1725 4.89045
LeftLeg  5.92222 17.195 0.661825
LeftFoot  7.33738 -0.144914 2.42137
LeftToes  -25.124 2.25955e-006 -3.67304e-008
159
root  -5.73652 34.7898 -32.3194 -171.799 13.6969 -179.418
RightUpLeg  -8.89789 -8.97084 -3.58698
RightLeg  1.76386 0.462661 -0.0150477
RightFoot  11.2636 0.0298444 0.229392
RightToes  -28.6522 -0.13456 -0.241827
Spine  -1.29549 0.261149 -0.168556
Spine1  -2.61081 0.566496 0.396799
HEad  -65.0786 -17.2687 15.0234
LeftShoulder1  -1.94126e-019 -3.10601e-018 -2.51263e-017
LeftArm  -8.07925 19.841 -77.3482
LeftForeArm  33.2516 -18.8543 -3.17343
LeftHand  -0.49802 -1.23345 8.8814
RightShoulder  -4.96962e-017 0 -2.36833e-017
RightArm  -24.9184 -15.2366 73.8716
RightForeArm  43.5587 17.1895 1.92214
RightHand  -0.0165917 -5.45037 -8.89932
LeftUpLeg  -5.57717 11.249 4.94389
LeftLeg  6.72766 17.8067 0.931329
LeftFoot  7.02363 -0.137837 2.4073
LeftToes  -25.2086 2.25955e-006 -3.67304e-008
160
root  -5.71418 34.7799 -32.2133 -171.683 15.3892 -179.253
RightUpLeg  -9.56049 -7.93438 -3.35792
RightLeg  1.97725 1.09108 -0.0319912
RightFoot  11.4253 0.017767 0.351105
RightToes  -28.7975 -0.136638 -0.243522
Spine  -1.19282 0.149777 -0.101868
Spine1  -2.40735 0.350651 0.519996
HEad  -65.2924 -17.116 14.8568
LeftShoulder1  -1.94126e-019 -3.10601e-018 -2.51263e-017
LeftArm  -7.1476 19.6827 -77.4
LeftForeArm  31.9174 -21.196 -3.50425
LeftHand  -0.492401 -1.12585 8.91926
RightShoulder  -4.96962e-017 0 -2.36833e-017
RightArm  -24.134 -16.2422 74.6085
RightForeArm  43.2092 18.5138 1.92235
RightHand  -0.0679519 -4.67562 -7.98144
LeftUpLeg  -5.91338 12.1272 5.05347
LeftLeg  7.72374 18.5296 1.28538
LeftFoot  6.58795 -0.126616 2.36125
LeftToes  -25.146 2.25955e-006 -3.67304e-008
161
root  -5.68873 34.7672 -32.1105 -171.515 17.1142 -179.054
RightUpLeg  -10.1796 -7.12046 -3.08973
RightLeg  2.0559 2.02101 -0.0568569
RightFoot  11.6308 -0.00134465 0.536953
RightToes  -29.2747 -0.138959 -0.246894
Spine  -1.10731 0.0609723 -0.0344862
Spine1  -2.23716 0.177959 0.647827
HEad  -65.5474 -16.839 14.9147
LeftShoulder1  -1.94126e-019 -3.10601e-018 -2.51263e-017
LeftArm  -7.04501 19.6498 -77.6459
LeftForeArm  30.4602 -23.096 -3.77443
LeftHand  -0.504552 -1.27461 8.9436
RightShoulder  -4.96962e-017 0 -2.36833e-017
RightArm  -24.0677 -17.2485 75.3904
RightForeArm  43.2805 20.0198 2.11075
RightHand  -0.0933683 -4.17977 -7.30505
LeftUpLeg  -6.27547 13.1452 5.1897
LeftLeg  8.73582 19.1904 1.66397
LeftFoot  6.17471 -0.115623 2.30501
LeftToes  -25.2556 2.25955e-006 -3.67304e-008
162
root  -5.65618 34.7515 -32.0051 -171.162 18.8642 -178.792
RightUpLeg  -10.9926 -6.47296 -2.71816
RightLeg  2.19962 3.11121 -0.0798855
RightFoot  11.8297 -0.0252207 0.761342
RightToes  -29.9424 -0.143525 -0.251206
Spine  -1.11619 0.0187472 0.0469922
Spine1  -2.25513 0.0986121 0.805356
HEad  -65.7491 -16.6992 15.0096
LeftShoulder1  -1.94126e-019 -3.10601e-018 -2.51263e-017
LeftArm  -8.3317 20.2742 -78.2411
LeftForeArm  29.0291 -25.5241 -4.10414
LeftHand  -0.519461 -1.332 9.12919
RightShoulder  -4.96962e-017 0 -2.36833e-017
RightArm  -24.9633 -18.9209 76.1688
RightForeArm  43.3539 23.0405 2.68994
RightHand  -0.113648 -3.66765 -6.6225
LeftUpLeg  -6.84135 14.2342 5.36294
LeftLeg  9.85261 19.8016 2.09631
LeftFoot  5.64218 -0.10001 2.19091
LeftToes  -25.4063 2.25955e-006 -3.67304e-008
163
root  -5.6266 34.7312 -31.9072 -170.822 20.7896 -178.563
RightUpLeg  -11.8531 -5.56151 -2.41182
RightLeg  2.44582 4.13117 -0.0883379
RightFoot  12.0012 -0.0488884 0.9775
RightToes  -30.4363 -0.145969 -0.254987
Spine  -1.12041 -0.00771481 0.1245
Spine1  -2.26469 0.05051 0.95578
HEad  -65.9608 -16.4899 15.1217
LeftShoulder1  -1.94126e-019 -3.10601e-018 -2.51263e-017
LeftArm  -11.5385 21.9898 -79.1743
LeftForeArm  26.5784 -29.8375 -4.99321
LeftHand  -0.488169 -0.897454 9.14628
RightShoulder  -4.96962e-017 0 -2.36833e-017
RightArm  -26.07 -21.5679 76.9218
RightForeArm  40.7684 29.2006 4.09299
RightHand  -0.0814804 -4.06463 -5.56158
LeftUpLeg  -7.36567 15.3316 5.48448
LeftLeg  11.0754 20.533 2.60449
LeftFoot  5.12861 -0.0861321 2.08462
LeftToes  -25.466 2.25955e-006 -3.67304e-008
164
root  -5.58476 34.7103 -31.824 -170.484 22.8416 -178.294
RightUpLeg  -12.6485 -4.46675 -2.09175
RightLeg  2.66699 5.08986 -0.0891611
RightFoot  12.1235 -0.0717898 1.18323
RightToes  -30.6169 -0.148192 -0.25623
Spine  -1.08583 -0.0165894 0.214214
Spine1  -2.19694 0.035547 1.13227
HEad  -66.5066 -16.1972 15.2849
LeftShoulder1  -1.94126e-019 -3.10601e-018 -2.51263e-017
LeftArm  -13.9714 24.4839 -80.0891
LeftForeArm  22.054 -36.4137 -6.92003
LeftHand  -0.39715 0.379053 9.23642
RightShoulder  -4.96962e-017 0 -2.36833e-017
RightArm  -27.4983 -24.9887 77.696
RightForeArm  35.437 37.9135 6.51309
RightHand  -0.0373601 -5.01238 -4.22922
LeftUpLeg  -7.74113 16.496 5.65153
LeftLeg  12.1851 21.3177 3.1095
LeftFoot  4.72727 -0.0764172 2.01277
LeftToes  -25.7068 2.25955e-006 -3.67304e-008
165
root  -5.52718 34.6922 -31.7611 -170.138 24.9446 -178.009
RightUpLeg  -13.3129 -3.48009 -1.75185
RightLeg  2.72539 6.20869 -0.102367
RightFoot  12.3824 -0.101987 1.4413
RightToes  -31.3023 -0.151722 -0.25901
Spine  -1.05763 -0.042372 0.279642
Spine1  -2.14174 -0.0127285 1.25941
HEad  -67.1941 -15.6856 15.4245
LeftShoulder1  -1.94126e-019 -3.10601e-018 -2.51263e-017
LeftArm  -14.3884 27.4328 -80.8106
LeftForeArm  21.1415 -44.2771 -9.45034
LeftHand  -0.361382 0.957058 9.43937
RightShoulder  -4.96962e-017 0 -2.36833e-017
RightArm  -27.7394 -28.3848 78.1008
RightForeArm  31.6737 46.8632 9.62723
RightHand  -0.0297862 -5.241 -3.23334
LeftUpLeg  -7.96791 17.6819 5.83407
LeftLeg  13.1329 22.159 3.59096
LeftFoot  4.42919 -0.0701718 1.97602
LeftToes  -25.8141 2.25955e-006 -3.67304e-008
166
root  -5.45574 34.678 -31.6949 -169.76 26.9639 -177.672
RightUpLeg  -13.8321 -2.46979 -1.36429
RightLeg  2.58928 7.20459 -0.135771
RightFoot  12.6469 -0.131744 1.68456
RightToes  -31.6642 -0.155547 -0.262536
Spine  -1.0874 -0.0908046 0.366172
Spine1  -2.19946 -0.105593 1.43452
HEad  -67.2054 -15.2956 15.2354
LeftShoulder1  -1.94126e-019 -3.10601e-018 -2.51263e-017
LeftArm  -13.0465 30.0419 -81.0978
LeftForeArm  24.5556 -51.6406 -12.2603
LeftHand  -0.397899 0.386494 9.26696
RightShoulder  -4.96962e-017 0 -2.36833e-017
RightArm  -26.6448 -31.2297 77.8124
RightForeArm  32.1349 55.0565 13.3457
RightHand  -0.0217079 -5.57074 -3.44637
LeftUpLeg  -8.1004 18.7179 6.08199
LeftLeg  13.9209 23.0779 4.04824
LeftFoot  4.26202 -0.068218 1.99396
LeftToes  -25.6114 2.25955e-006 -3.67304e-008
